<svg width="14" height="10" viewBox="0 0 14 10" fill="none" xmlns="http://www.w3.org/2000/svg">
    <path d="M5.48623 9.72989C5.35497 9.73016 5.22494 9.7045 5.10361 9.6544C4.98229 9.60429 4.87205 9.53071 4.77923 9.43789L0.537232 5.19489C0.441659 5.10271 0.365401 4.99242 0.312907 4.87046C0.260414 4.74849 0.232736 4.61729 0.231489 4.48451C0.230243 4.35174 0.255452 4.22004 0.305646 4.09711C0.35584 3.97418 0.430013 3.86248 0.523839 3.76852C0.617664 3.67456 0.729262 3.60023 0.852122 3.54986C0.974981 3.49949 1.10664 3.4741 1.23942 3.47516C1.3722 3.47622 1.50344 3.50371 1.62548 3.55603C1.74752 3.60835 1.85792 3.68445 1.95023 3.77989L5.48523 7.31489L11.8502 0.951894C12.0377 0.764253 12.2921 0.658785 12.5574 0.658691C12.8226 0.658598 13.0771 0.763886 13.2647 0.951394C13.4524 1.1389 13.5578 1.39327 13.5579 1.65854C13.558 1.92381 13.4527 2.17825 13.2652 2.36589L6.19323 9.43789C6.10041 9.53071 5.99018 9.60429 5.86885 9.6544C5.74752 9.7045 5.6175 9.73016 5.48623 9.72989Z" fill="#15803D"/>
</svg>
