<svg width="64" height="64" viewBox="0 0 64 64" fill="none" xmlns="http://www.w3.org/2000/svg">
    <path d="M17.9878 10.6665H46.1688C46.1688 10.6665 43.8205 46.0188 32.0784 46.0188C26.3422 46.0188 22.8478 37.5825 20.7738 28.9521C18.6022 19.9157 17.9878 10.6665 17.9878 10.6665Z" stroke="#78350F" stroke-width="1.5" stroke-linecap="round" stroke-linejoin="round"/>
    <path d="M46.1685 10.6664C46.1685 10.6664 48.625 8.04598 50.6666 7.99974C54.6666 7.90918 55.4061 10.6664 55.4061 10.6664C56.189 12.2918 56.8151 16.5179 53.0578 20.4188C49.3002 24.3198 45.0941 27.7331 43.3823 28.952" stroke="#78350F" stroke-width="1.5" stroke-linecap="round" stroke-linejoin="round"/>
    <path d="M17.9875 10.6669C17.9875 10.6669 15.428 8.01662 13.3333 8.00027C9.33333 7.96904 8.59384 10.6669 8.59384 10.6669C7.81101 12.2923 7.18477 16.5183 10.9423 20.4193C14.6997 24.3203 19.0621 27.7336 20.7736 28.9528" stroke="#78350F" stroke-width="1.5" stroke-linecap="round" stroke-linejoin="round"/>
    <path d="M22.6841 53.3334C22.6841 48.4572 32.0776 46.019 32.0776 46.019C32.0776 46.019 41.4715 48.4572 41.4715 53.3334H22.6841Z" stroke="#78350F" stroke-width="1.5" stroke-linecap="round" stroke-linejoin="round"/>
</svg>
